<svg xmlns="http://www.w3.org/2000/svg">
<symbol id="mail" viewBox="0 0 16 12">
    <path d="M14.5 0H1.50001C0.672854 0 0 0.672853 0 1.50001V10.5C0 11.3271 0.672854 12 1.50001 12H14.5C15.3271 12 16 11.3271 16 10.5V1.50001C16 0.672853 15.3271 0 14.5 0ZM14.5 0.999994C14.5679 0.999994 14.6325 1.01409 14.6916 1.0387L8 6.83838L1.30833 1.0387C1.36742 1.01412 1.43204 0.999994 1.49998 0.999994H14.5ZM14.5 11H1.50001C1.22414 11 0.999996 10.7759 0.999996 10.5V2.09521L7.67236 7.87792C7.76661 7.95944 7.8833 7.99999 8 7.99999C8.1167 7.99999 8.23339 7.95948 8.32764 7.87792L15 2.09521V10.5C15 10.7759 14.7759 11 14.5 11Z"/>
</symbol>
<symbol id="smartphone" viewBox="0 0 10 16">
    <path d="M8.5 0H1.5C0.672848 0 0 0.672848 0 1.5V14.5C0 15.3272 0.672848 16 1.5 16H8.5C9.32715 16 10 15.3272 10 14.5V1.5C10 0.672848 9.32715 0 8.5 0ZM1.5 1H8.5C8.77588 1 9 1.22412 9 1.5V12H1V1.5C1 1.22412 1.22412 1 1.5 1ZM8.5 15H1.5C1.22412 15 1 14.7759 1 14.5V13H9V14.5C9 14.7759 8.77588 15 8.5 15Z"/>
    <path d="M2.35355 13.7389C2.54882 13.9213 2.54882 14.2169 2.35355 14.3992C2.15828 14.5816 1.84172 14.5816 1.64645 14.3992C1.45118 14.2169 1.45118 13.9213 1.64645 13.7389C1.84172 13.5566 2.15828 13.5566 2.35355 13.7389Z"/>
</symbol>
<symbol id="instagram" viewBox="0 0 20 20">
    <path d="M19.9804 5.88005C19.9336 4.81738 19.7617 4.0868 19.5156 3.45374C19.2616 2.78176 18.8709 2.18014 18.359 1.68002C17.8589 1.1721 17.2533 0.777435 16.5891 0.527447C15.9524 0.281274 15.2256 0.109427 14.163 0.0625732C13.0924 0.0117516 12.7525 0 10.0371 0C7.32173 0 6.98185 0.0117516 5.91521 0.0586052C4.85253 0.105459 4.12195 0.277459 3.48904 0.523479C2.81692 0.777435 2.2153 1.16814 1.71517 1.68002C1.20726 2.18014 0.812743 2.78573 0.562603 3.44992C0.31643 4.0868 0.144583 4.81341 0.0977294 5.87609C0.0469078 6.9467 0.0351562 7.28658 0.0351562 10.002C0.0351562 12.7173 0.0469078 13.0572 0.0937614 14.1239C0.140615 15.1865 0.312615 15.9171 0.558787 16.5502C0.812743 17.2221 1.20726 17.8238 1.71517 18.3239C2.2153 18.8318 2.82088 19.2265 3.48508 19.4765C4.12195 19.7226 4.84856 19.8945 5.91139 19.9413C6.97788 19.9883 7.31791 19.9999 10.0333 19.9999C12.7487 19.9999 13.0885 19.9883 14.1552 19.9413C15.2179 19.8945 15.9484 19.7226 16.5813 19.4765C17.9254 18.9568 18.9881 17.8941 19.5078 16.5502C19.7538 15.9133 19.9258 15.1865 19.9727 14.1239C20.0195 13.0572 20.0313 12.7173 20.0313 10.002C20.0313 7.28658 20.0273 6.9467 19.9804 5.88005ZM18.1794 14.0457C18.1364 15.0225 17.9723 15.5499 17.8356 15.9015C17.4995 16.7728 16.808 17.4643 15.9367 17.8004C15.5851 17.9372 15.0538 18.1012 14.0809 18.1441C13.026 18.1911 12.7096 18.2027 10.0411 18.2027C7.37255 18.2027 7.05221 18.1911 6.00113 18.1441C5.02438 18.1012 4.49693 17.9372 4.1453 17.8004C3.71171 17.6402 3.31704 17.3862 2.9967 17.0541C2.6646 16.7298 2.41065 16.3391 2.2504 15.9055C2.11365 15.5539 1.94959 15.0225 1.90671 14.0497C1.8597 12.9948 1.8481 12.6783 1.8481 10.0097C1.8481 7.34122 1.8597 7.02087 1.90671 5.96995C1.94959 4.99319 2.11365 4.46575 2.2504 4.11412C2.41065 3.68038 2.6646 3.28586 3.00067 2.96536C3.32483 2.63327 3.71553 2.37931 4.14927 2.21921C4.5009 2.08247 5.03231 1.9184 6.0051 1.87537C7.05999 1.82851 7.37652 1.81676 10.0449 1.81676C12.7174 1.81676 13.0337 1.82851 14.0848 1.87537C15.0616 1.9184 15.589 2.08247 15.9407 2.21921C16.3742 2.37931 16.7689 2.63327 17.0893 2.96536C17.4213 3.28967 17.6753 3.68038 17.8356 4.11412C17.9723 4.46575 18.1364 4.99701 18.1794 5.96995C18.2263 7.02484 18.238 7.34122 18.238 10.0097C18.238 12.6783 18.2263 12.9908 18.1794 14.0457Z"/>
<path d="M10.0371 4.8642C7.20074 4.8642 4.89941 7.16537 4.89941 10.0019C4.89941 12.8385 7.20074 15.1396 10.0371 15.1396C12.8737 15.1396 15.1749 12.8385 15.1749 10.0019C15.1749 7.16537 12.8737 4.8642 10.0371 4.8642ZM10.0371 13.3346C8.19702 13.3346 6.70442 11.8422 6.70442 10.0019C6.70442 8.16165 8.19702 6.66921 10.0371 6.66921C11.8774 6.66921 13.3698 8.16165 13.3698 10.0019C13.3698 11.8422 11.8774 13.3346 10.0371 13.3346Z"/>
<path d="M16.5775 4.6611C16.5775 5.32346 16.0404 5.86052 15.3779 5.86052C14.7155 5.86052 14.1785 5.32346 14.1785 4.6611C14.1785 3.99858 14.7155 3.46167 15.3779 3.46167C16.0404 3.46167 16.5775 3.99858 16.5775 4.6611Z"/>
</symbol>
<symbol id="twitter" viewBox="0 0 20 20">
    <path d="M20 3.79875C19.2563 4.125 18.4637 4.34125 17.6375 4.44625C18.4875 3.93875 19.1363 3.14125 19.4412 2.18C18.6488 2.6525 17.7738 2.98625 16.8412 3.1725C16.0887 2.37125 15.0162 1.875 13.8462 1.875C11.5763 1.875 9.74875 3.7175 9.74875 5.97625C9.74875 6.30125 9.77625 6.61375 9.84375 6.91125C6.435 6.745 3.41875 5.11125 1.3925 2.6225C1.03875 3.23625 0.83125 3.93875 0.83125 4.695C0.83125 6.115 1.5625 7.37375 2.6525 8.1025C1.99375 8.09 1.3475 7.89875 0.8 7.5975C0.8 7.61 0.8 7.62625 0.8 7.6425C0.8 9.635 2.22125 11.29 4.085 11.6712C3.75125 11.7625 3.3875 11.8062 3.01 11.8062C2.7475 11.8062 2.4825 11.7913 2.23375 11.7362C2.765 13.36 4.2725 14.5538 6.065 14.5925C4.67 15.6838 2.89875 16.3412 0.98125 16.3412C0.645 16.3412 0.3225 16.3263 0 16.285C1.81625 17.4563 3.96875 18.125 6.29 18.125C13.835 18.125 17.96 11.875 17.96 6.4575C17.96 6.27625 17.9538 6.10125 17.945 5.9275C18.7588 5.35 19.4425 4.62875 20 3.79875Z"/>
</symbol>
<symbol id="facebook" viewBox="0 0 20 20">
    <path d="M13.3308 3.32083H15.1566V0.140833C14.8416 0.0975 13.7583 0 12.4966 0C9.8641 0 8.06076 1.65583 8.06076 4.69917V7.5H5.15576V11.055H8.06076V20H11.6224V11.0558H14.4099L14.8524 7.50083H11.6216V5.05167C11.6224 4.02417 11.8991 3.32083 13.3308 3.32083Z"/>
</symbol>
<symbol id="linkedin" viewBox="0 0 20 20">
    <path d="M19.9951 20V19.9992H20.0001V12.6642C20.0001 9.07587 19.2276 6.31171 15.0326 6.31171C13.0159 6.31171 11.6626 7.41837 11.1101 8.46754H11.0517V6.64671H7.07422V19.9992H11.2159V13.3875C11.2159 11.6467 11.5459 9.96337 13.7017 9.96337C15.8259 9.96337 15.8576 11.95 15.8576 13.4992V20H19.9951Z"/>
<path d="M0.330078 6.64746H4.47675V20H0.330078V6.64746Z"/>
<path d="M2.40167 0C1.07583 0 0 1.07583 0 2.40167C0 3.7275 1.07583 4.82583 2.40167 4.82583C3.7275 4.82583 4.80333 3.7275 4.80333 2.40167C4.8025 1.07583 3.72667 0 2.40167 0V0Z"/>
</symbol>
<symbol id="rails" viewBox="0 0 60 60">
    <path d="M52.2113 39.5268V42.435H57.165C58.1794 42.435 59.9231 41.6475 59.9831 39.4462V38.3212C59.9831 36.4406 58.5281 35.3325 57.165 35.3325H54.6956V33.9825H59.5894V31.0575H54.8925C53.6813 31.0575 52.0594 32.1187 52.0594 34.095V35.1075C52.0594 37.0837 53.6663 38.0962 54.8925 38.0962C58.3013 38.1131 54.075 38.0962 57.225 38.0962V39.51L52.2113 39.5268ZM25.6669 38.82C25.6669 38.82 28.3181 38.5781 28.3181 34.9462C28.3181 31.3143 25.1063 30.9768 25.1063 30.9768H19.3181V42.435H22.2263V39.6712L24.7406 42.435H29.0438L25.6669 38.82ZM24.5456 36.4725H22.2281V33.8531H24.5606C24.5606 33.8531 25.2113 34.11 25.2113 35.1543C25.2113 36.1987 24.5438 36.4725 24.5438 36.4725H24.5456ZM35.4994 31.0575H32.5444C30.4388 31.0575 29.7263 33.0825 29.7263 34.0462V42.435H32.6813V40.4268H35.4544V42.435H38.3175V34.0462C38.3175 31.6031 36.2269 31.0575 35.4994 31.0575ZM35.4544 37.1793H32.6663V34.3987C32.6663 34.3987 32.6663 33.7725 33.5906 33.7725H34.605C35.4225 33.7725 35.4375 34.3987 35.4375 34.3987V37.1793H35.4544ZM39.6675 31.0575H42.7425V42.4368H39.6675V31.0575ZM47.0606 39.495V31.0575H44.0006V42.4368H51.1969V39.495H47.0606ZM1.06125 42.435H13.0312C13.0312 42.435 10.7438 31.3612 18.3188 26.8781C19.9706 26.0268 25.2281 22.845 33.8344 29.595C34.1063 29.3531 34.365 29.1618 34.365 29.1618C34.365 29.1618 26.4862 20.82 17.7131 21.7537C13.305 22.1718 7.88063 26.43 4.69875 32.055C1.51688 37.68 1.06313 42.4368 1.06313 42.4368L1.06125 42.435ZM1.06125 42.435H13.0312C13.0312 42.435 10.7438 31.3612 18.3188 26.8781C19.9706 26.0268 25.2281 22.845 33.8344 29.595C34.1063 29.3531 34.365 29.1618 34.365 29.1618C34.365 29.1618 26.4862 20.82 17.7131 21.7537C13.305 22.1718 7.88063 26.43 4.69875 32.055C1.51688 37.68 1.06313 42.4368 1.06313 42.4368L1.06125 42.435ZM1.06125 42.435H13.0312C13.0312 42.435 10.7438 31.3612 18.3188 26.8781C19.9706 26.0268 25.2281 22.845 33.8344 29.595C34.1063 29.3531 34.365 29.1618 34.365 29.1618C34.365 29.1618 26.4862 20.82 17.7131 21.7537C13.2881 22.1718 7.86375 26.43 4.68375 32.055C1.50375 37.68 1.06313 42.4368 1.06313 42.4368L1.06125 42.435ZM26.0006 22.6518L26.0606 21.5756C25.9238 21.495 25.545 21.3018 24.5906 21.0131L24.5306 22.0743C25.0313 22.2506 25.515 22.4437 26.0006 22.6537V22.6518ZM24.5606 26.0587L24.5006 27.0712C25.0013 27.0881 25.5 27.1518 26.0006 27.2643L26.0606 26.2687C25.545 26.1562 25.0463 26.0925 24.5606 26.0606V26.0587ZM18.9544 21.045H19.1063L18.8025 20.0643C18.3319 20.0643 17.8481 20.0962 17.3475 20.16L17.6363 21.1087C18.075 21.06 18.5156 21.045 18.9544 21.045ZM19.6819 26.9587L20.0306 28.0668C20.4694 27.8418 20.91 27.6487 21.3488 27.5043L21.015 26.4431C20.4994 26.6043 20.0606 26.7806 19.6819 26.9568V26.9587ZM12.8025 22.7325L12.12 21.6243C11.7413 21.8325 11.3475 22.0575 10.9388 22.3162L11.6363 23.4412C12.03 23.1843 12.4088 22.9425 12.8025 22.7343V22.7325ZM15.9094 29.9643L16.6369 31.1212C16.8938 30.72 17.1975 30.3506 17.5313 29.9793L16.8488 28.8862C16.5 29.2237 16.1812 29.5931 15.9094 29.9625V29.9643ZM13.7119 35.1393L14.94 36.1687C15 35.5425 15.1069 34.9143 15.2587 34.2881L14.1675 33.3712C13.9706 33.9656 13.8338 34.56 13.7138 35.1393H13.7119ZM7.07625 27.5043L6 26.5087C5.60625 26.91 5.2275 27.3131 4.87875 27.7143L6.045 28.7756C6.36375 28.3425 6.7125 27.9075 7.07438 27.5062L7.07625 27.5043ZM2.49938 34.6893L0.7575 34.0143C0.470625 34.7062 0.151875 35.5087 0 35.9437L1.74188 36.6187C1.93875 36.0731 2.2575 35.2856 2.49938 34.6893ZM13.485 39.2212C13.515 40.0725 13.5919 40.7643 13.6669 41.2462L15.4856 41.9381C15.3488 41.3118 15.2137 40.605 15.1219 39.8493L13.485 39.2212Z"/>
</symbol>
<symbol id="googlepay" viewBox="0 0 60 60">
    <path d="M59.9999 24.9994L52.1643 42.4988H49.7437L52.6518 36.3732L47.4993 24.9975H50.0493L53.7749 33.7219H53.8255L57.4462 24.9975L59.9999 24.9994ZM27.4574 30.4144V37.5H24.9993V20.0007H31.5168C31.5637 19.9988 31.6162 19.9988 31.6705 19.9988C33.2287 19.9988 34.6518 20.5725 35.7412 21.5213L35.7337 21.5157C36.8793 22.4588 37.5205 23.8032 37.498 25.2113C37.498 25.2282 37.498 25.2488 37.498 25.2675C37.498 26.745 36.8118 28.0613 35.7412 28.9163L35.7318 28.9238C34.5937 29.9194 33.1874 30.4144 31.5149 30.4144H27.4574ZM27.4518 22.155V28.2657H31.5712C32.4843 28.29 33.3655 27.96 34.003 27.36C34.633 26.7975 34.9912 26.0269 34.9912 25.2207C34.9912 24.4163 34.633 23.6457 34.003 23.0832C33.4012 22.5075 32.5837 22.1532 31.6837 22.1532C31.6443 22.1532 31.603 22.1532 31.5637 22.155H31.5693H27.4518ZM42.4293 24.9994C43.9968 24.9994 45.2343 25.4344 46.1418 26.3044C47.0474 27.1744 47.4993 28.3688 47.4993 29.8838V37.1157H45.4724V35.4863H45.3805C44.503 36.8288 43.3349 37.4982 41.8799 37.4982C40.6349 37.4982 39.5943 37.1157 38.7543 36.3488C37.9818 35.6625 37.498 34.665 37.498 33.5569C37.498 33.5288 37.498 33.4988 37.4999 33.4707V33.4744C37.4999 32.2613 37.9424 31.2975 38.8255 30.5794C39.7087 29.8613 40.888 29.505 42.3637 29.5013C43.6218 29.5013 44.6587 29.7413 45.4705 30.2194V29.7169C45.4705 29.7094 45.4705 29.7 45.4705 29.6907C45.4705 28.9257 45.133 28.2375 44.5987 27.7707L44.5949 27.7688C44.0699 27.27 43.3574 26.9644 42.5737 26.9644C42.5643 26.9644 42.5568 26.9644 42.5474 26.9644H42.5493C41.3643 26.9644 40.4268 27.4838 39.7387 28.5225L37.8712 27.3019C38.8968 25.77 40.4155 25.0013 42.4293 25.0013V24.9994ZM39.688 33.525C39.688 33.5307 39.688 33.5363 39.688 33.5419C39.688 34.1194 39.9637 34.6332 40.3893 34.9594L40.393 34.9632C40.8599 35.3457 41.443 35.5482 42.0412 35.5388C42.9337 35.5369 43.7905 35.1638 44.4243 34.5094C45.073 33.9094 45.4799 33.0525 45.4799 32.1019C45.4799 32.0982 45.4799 32.0944 45.4799 32.0925C44.818 31.5432 43.8974 31.2694 42.7143 31.2694C41.8518 31.2694 41.1337 31.4869 40.5599 31.92C39.9805 32.355 39.6899 32.8875 39.6899 33.5269L39.688 33.525ZM10.2018 20.0007C10.2393 20.0007 10.2824 20.0007 10.3274 20.0007C12.913 20.0007 15.268 20.9907 17.0343 22.6125L17.0268 22.6069L14.1168 25.4625C13.1193 24.5325 11.7768 23.9625 10.3012 23.9625C10.2655 23.9625 10.2318 23.9625 10.1962 23.9644H10.2018C7.55617 23.9813 5.31367 25.6819 4.4868 28.0463L4.47367 28.0894C4.27117 28.6594 4.15305 29.3194 4.15305 30.0038C4.15305 30.6882 4.27117 31.3482 4.4868 31.9594L4.47367 31.9182C5.3118 34.3257 7.55617 36.0263 10.1999 36.0432H10.2018C11.5799 36.0432 12.7593 35.6982 13.6762 35.0907C14.7487 34.3913 15.4837 33.2907 15.7105 32.0475H10.1999V28.1982H19.8224C19.9405 28.8713 19.9968 29.5482 19.9968 30.2307C19.9968 33.2738 18.8868 35.8482 16.9612 37.5882C15.2718 39.1182 12.9505 40.0032 10.198 40.0032C10.1849 40.0032 10.1718 40.0032 10.1568 40.0032C6.23242 40.0032 2.82555 37.7925 1.10992 34.5488L1.08367 34.4925C0.399297 33.1875 -0.00195312 31.6425 -0.00195312 30.0019C-0.00195312 28.3613 0.399297 26.8163 1.10992 25.4569L1.08367 25.5113C2.82555 22.2113 6.23242 20.0007 10.1568 20.0007C10.1718 20.0007 10.1868 20.0007 10.2018 20.0007H10.1999H10.2018Z"/>
</symbol>
<symbol id="playstation" viewBox="0 0 60 60">
    <path d="M22.4624 6.48938V50.3588L32.2499 53.5106V16.7175C32.2499 14.9925 33.0093 13.8394 34.2355 14.2406C35.8255 14.6925 36.1349 16.275 36.1349 18.0038V32.6944C42.238 35.6775 47.0399 32.6888 47.0399 24.8119C47.0399 16.7194 44.2255 13.125 35.9455 10.245C32.6774 9.12563 26.6249 7.28063 22.468 6.48938H22.4624ZM34.1024 47.0944L49.843 41.4075C51.6299 40.7625 51.9074 39.8456 50.458 39.3619C48.9936 38.8819 46.3649 39.015 44.5649 39.6694L34.0518 43.4175V37.455L34.6518 37.2431C34.6518 37.2431 37.6536 36.1931 41.9343 35.7056C46.1736 35.2556 51.3974 35.7788 55.5261 37.3575C60.1461 38.8594 60.628 41.0381 59.4655 42.5381C58.303 44.0381 55.4099 45.1275 55.4099 45.1275L34.0499 52.8956V47.1525L34.1024 47.0944ZM4.52052 46.5C-0.228855 45.1369 -1.01448 42.33 1.1399 40.6969C3.1424 39.2344 6.53802 38.07 6.53802 38.07L20.578 33.0375V38.82L10.5149 42.5006C8.7524 43.1775 8.4524 44.0813 9.91677 44.565C11.3811 45.0525 14.0099 44.94 15.7743 44.265L20.6193 42.5006V47.685C20.3174 47.7581 19.9799 47.7956 19.6424 47.8669C14.7974 48.6938 9.65427 48.3563 4.55052 46.6688L4.52052 46.5Z"/>
</symbol>
<symbol id="applepay" viewBox="0 0 60 60">
    <path d="M10.9706 20.7094C10.2656 21.5513 9.14058 22.215 8.01558 22.1194C7.87496 20.9813 8.42621 19.7738 9.07121 19.0275C9.77621 18.1631 11.0062 17.55 12.0018 17.4994C12.12 18.6844 11.6625 19.845 10.9725 20.7094H10.9706ZM11.9868 22.3444C10.3593 22.2488 8.96246 23.2819 8.19184 23.2819C7.40434 23.2819 6.22121 22.3913 4.93121 22.4175C3.25684 22.4419 1.69871 23.4 0.843711 24.93C-0.916914 27.9844 0.386211 32.5125 2.08309 35.0006C2.91559 36.2325 3.91309 37.5825 5.22559 37.5356C6.46496 37.4888 6.95809 36.7181 8.45809 36.7181C9.97121 36.7181 10.4025 37.5356 11.7187 37.5131C13.0762 37.4888 13.9312 36.2813 14.7637 35.0475C15.7143 33.6469 16.1006 32.2875 16.1231 32.2144C16.0987 32.19 13.4981 31.185 13.4737 28.1513C13.4512 25.6144 15.5231 24.4069 15.6187 24.3356C14.4487 22.5806 12.6187 22.3913 11.9868 22.3425V22.3444ZM21.3993 18.9094V37.3819H24.2362V31.0669H28.1606C31.7456 31.0669 34.2656 28.5769 34.2656 24.9769C34.2656 21.375 31.7925 18.9094 28.2562 18.9094H21.3993ZM24.2381 21.3281H27.5081C29.9681 21.3281 31.3725 22.6538 31.3725 24.9881C31.3725 27.3225 29.9681 28.6631 27.495 28.6631H24.2343L24.2381 21.3281ZM39.4481 37.5225C41.2312 37.5225 42.8831 36.6131 43.6331 35.1656H43.6912V37.3838H46.3162V28.1888C46.3162 25.5244 44.2068 23.8031 40.9612 23.8031C37.9481 23.8031 35.7243 25.545 35.6418 27.9375H38.1975C38.4075 26.7994 39.45 26.055 40.8806 26.055C42.615 26.055 43.5881 26.8725 43.5881 28.3781V29.3963L40.0481 29.6119C36.7556 29.8125 34.9725 31.1738 34.9725 33.5438C34.9725 35.9363 36.8118 37.5244 39.45 37.5244L39.4481 37.5225ZM40.2093 35.3325C38.6962 35.3325 37.7343 34.5975 37.7343 33.4725C37.7343 32.31 38.6625 31.635 40.4325 31.5281L43.5825 31.3275V32.37C43.5825 34.1006 42.1331 35.3325 40.2093 35.3325ZM49.8206 42.4069C52.5862 42.4069 53.8856 41.34 55.02 38.1038L60 23.9794H57.1181L53.7787 34.8919H53.7206L50.3812 23.9794H47.4168L52.2187 37.4288L51.9618 38.2463C51.5287 39.6319 50.8275 40.1644 49.5712 40.1644C49.3481 40.1644 48.9168 40.14 48.7387 40.1175V42.3356C48.9037 42.3825 49.6068 42.405 49.8206 42.4088V42.4069Z"/>
</symbol>
<symbol id="npm" viewBox="0 0 60 60">
    <path d="M0 18.3356V38.3362H16.665V41.6662H30V38.3362H60V18.3356H0ZM16.665 34.9949H13.335V24.9956H9.9975V34.9949H3.3375V21.6674H16.665V34.9949ZM26.6644 34.9949V38.3343H20.0025V21.6674H33.3375V34.9968H26.6644V34.9949ZM56.6681 34.9949H53.3438V24.9956H50.0044V34.9949H46.6669V24.9956H43.3425V34.9949H36.6656V21.6674H56.67L56.6681 34.9949ZM26.6625 24.9993H30V31.6668H26.6625V24.9993Z"/>
</symbol>
<symbol id="ubereats" viewBox="0 0 60 60">
    <path d="M-7.81249e-05 6.87561V19.6012C-7.81249e-05 24.4012 3.35055 27.5756 7.70055 27.5756C9.82492 27.5756 11.7262 26.7506 13.0762 25.3256V27.225H16.1005V6.87561H13.0499V19.425C13.0499 22.65 10.8749 24.825 8.0493 24.825C5.1993 24.825 3.04867 22.7006 3.04867 19.425V6.87561H-0.00195312H-7.81249e-05ZM18.3749 6.87561V27.225H21.2493V25.35C22.5937 26.7244 24.4668 27.5756 26.5387 27.5756C26.5518 27.5756 26.563 27.5756 26.5762 27.5756H26.5743C26.5893 27.5756 26.6062 27.5756 26.6249 27.5756C30.8905 27.5756 34.3499 24.1162 34.3499 19.8506C34.3499 19.8412 34.3499 19.8337 34.3499 19.8244V19.8262C34.3499 19.8187 34.3499 19.8094 34.3499 19.8019C34.3499 15.5362 30.8905 12.0769 26.6249 12.0769C26.608 12.0769 26.5893 12.0769 26.5724 12.0769H26.5743C24.4987 12.0769 22.6499 12.9262 21.2493 14.2762V6.87561H18.3749ZM43.1493 12.0994C38.7487 12.0994 35.5237 15.6244 35.5237 19.8C35.5237 24.225 38.9493 27.5006 43.3987 27.5006C46.0987 27.5006 48.3243 26.3512 49.798 24.375L47.6737 22.8C46.573 24.2756 45.1237 24.9994 43.3987 24.9994C40.8993 24.9994 38.8987 23.175 38.4993 20.775H50.5499V19.8C50.5499 15.3994 47.4243 12.0994 43.1493 12.0994ZM58.6255 12.2756C56.9999 12.2756 55.8262 13.0256 55.1005 14.2256V12.4012H52.1755V27.2269H55.1249V18.7519C55.1249 16.5019 56.5255 15.0019 58.4249 15.0019H59.6493V12.2775H58.6237L58.6255 12.2756ZM43.0743 14.6494C45.2737 14.6494 47.0999 16.1737 47.5987 18.45H38.548C39.073 16.1756 40.8974 14.6494 43.0724 14.6494H43.0743ZM26.3755 14.7C29.1505 14.7 31.4512 16.95 31.4512 19.8244C31.4512 22.6744 29.1505 24.9994 26.3755 24.9994C26.368 24.9994 26.3587 24.9994 26.3493 24.9994C23.533 24.9994 21.2493 22.7156 21.2493 19.8994C21.2493 19.8731 21.2493 19.8469 21.2493 19.8206V19.8244C21.2493 16.95 23.5499 14.7 26.3737 14.7H26.3755ZM-7.81249e-05 32.4V52.7494H14.3005V49.275H3.87555V44.2256H14.0249V40.8506H3.87555V35.8762H14.3005V32.4019H-7.81249e-05V32.4ZM36.3993 33.45V37.725H33.4987V41.1244H36.3993V49.125C36.3993 51.15 37.8243 52.7494 40.3987 52.7494H44.4993V49.35H41.6493C40.7737 49.35 40.2243 48.9506 40.2243 48.15V41.1244H44.4993V37.725H40.2243V33.45H36.3993ZM23.3005 37.35C18.8249 37.35 15.2999 40.8506 15.2999 45.2494C15.2999 49.6237 18.8249 53.1244 23.3005 53.1244C25.1005 53.1244 26.7749 52.5 28.1005 51.3994V52.7494H31.9012V37.725H28.1005V39.075C26.8255 38.0025 25.1643 37.35 23.3512 37.35C23.3343 37.35 23.3155 37.35 23.2987 37.35H23.3005ZM52.5993 37.35C48.6243 37.35 45.8493 38.9756 45.8493 42.15C45.8493 44.325 47.3737 45.75 50.6737 46.4494L54.298 47.2987C55.723 47.5744 56.098 47.9494 56.098 48.5494C56.098 49.4737 54.9974 50.0737 53.2724 50.0737C51.0974 50.0737 49.8468 49.5731 49.348 47.9231H45.523C46.0724 51.0487 48.3974 53.1225 53.1487 53.1225C57.4987 53.1225 59.998 51.0469 59.998 48.1481C59.998 46.0987 58.5487 44.5725 55.4737 43.9237L52.2487 43.2487C50.3737 42.8981 49.7737 42.4987 49.7737 41.8481C49.7737 40.9481 50.6737 40.3987 52.348 40.3987C54.148 40.3987 55.4737 40.8994 55.8487 42.4987H59.6493C59.4487 39.4237 57.1743 37.3481 52.5993 37.3481V37.35ZM23.6249 40.65C26.1505 40.65 28.1755 42.675 28.1755 45.2494C28.1755 47.8237 26.1505 49.8244 23.6249 49.8244C23.6174 49.8244 23.608 49.8244 23.6005 49.8244C21.088 49.8244 19.0499 47.7881 19.0499 45.2737C19.0499 45.2644 19.0499 45.2569 19.0499 45.2475V45.2494C19.0499 42.675 21.1255 40.65 23.6249 40.65Z"/>
</symbol>
</svg>