<svg width="70" height="70" viewBox="0 0 70 70" fill="none" xmlns="http://www.w3.org/2000/svg">
<g clip-path="url(#clip0_501209_260)">
<path d="M45.1981 16.9705V20.4249C45.1981 21.3919 45.9654 22.1778 46.909 22.1778H56.9281C57.8799 22.1778 58.6402 21.3919 58.6402 20.4249V16.9705H45.1981Z" fill="black"/>
<path d="M58.6273 28.1621H53.4999C52.7332 28.1621 52.1278 28.7887 52.1278 29.5604V33.4001C52.1278 34.1795 52.7332 34.799 53.4999 34.799H58.6273C59.3946 34.799 59.9994 34.1795 59.9994 33.4001V29.5604C60 28.7887 59.3952 28.1621 58.6273 28.1621Z" fill="black"/>
<path d="M58.6273 47.9951H53.4999C52.7332 47.9951 52.1278 48.6152 52.1278 49.4005V53.2337C52.1278 54.0054 52.7332 54.6403 53.4999 54.6403H58.6273C59.3946 54.6403 59.9994 54.0054 59.9994 53.2337V49.4005C60 48.6146 59.3952 47.9951 58.6273 47.9951Z" fill="#EC3C05"/>
<path d="M53.1669 57.3696H17.5612C16.8091 57.3696 16.1891 57.9897 16.1891 58.7597V62.6076C16.1891 63.3782 16.8091 63.9989 17.5612 63.9989H53.1669C53.919 63.9989 54.5244 63.3776 54.5244 62.6076V58.7597C54.5244 57.9897 53.919 57.3696 53.1669 57.3696Z" fill="black"/>
<path d="M18.8711 53.2354V49.3951C18.8711 48.6163 18.2517 47.9968 17.499 47.9968H12.3558C11.6107 47.9968 11.0059 48.6163 11.0059 49.3951V53.2354C11.0059 54.006 11.6113 54.6414 12.3558 54.6414H17.4984C18.2511 54.6414 18.8711 54.006 18.8711 53.2354Z" fill="#EC3C05"/>
<path d="M12.3575 34.798H17.5001C18.2522 34.798 18.8722 34.178 18.8722 33.3997V29.56C18.8722 28.7877 18.2528 28.1611 17.5001 28.1611H12.3575C11.6054 28.1617 11 28.7883 11 29.5606V33.4003C11 34.1785 11.6054 34.798 12.3575 34.798Z" fill="black"/>
<path d="M13.5114 22.1833H23.5229C24.4741 22.1833 25.2414 21.3962 25.2414 20.4292V16.9753H11.7993V20.4292C11.7993 21.3962 12.559 22.1833 13.5114 22.1833Z" fill="black"/>
<path d="M48.3533 28.1621H43.2113C42.4586 28.1621 41.8538 28.7887 41.8538 29.5604V33.4001C41.8538 34.1795 42.4586 34.799 43.2113 34.799H48.3533C49.1054 34.799 49.7114 34.1795 49.7114 33.4001V29.5604C49.7114 28.7887 49.1054 28.1621 48.3533 28.1621Z" fill="#EC3C05"/>
<path d="M54.9104 43.3588V39.5185C54.9104 38.7545 54.2905 38.1196 53.5383 38.1196H48.3964C47.6506 38.1196 47.0464 38.7545 47.0464 39.5185V43.3588C47.0464 44.1447 47.6506 44.7648 48.3964 44.7648H53.5383C54.2899 44.7648 54.9104 44.1447 54.9104 43.3588Z" fill="#EC3C05"/>
<path d="M43.2089 54.6392H48.3515C49.1042 54.6392 49.7096 54.0031 49.7096 53.2326V49.4C49.7096 48.6135 49.1042 47.9934 48.3515 47.9934H43.2089C42.4568 47.9934 41.8519 48.6135 41.8519 49.4V53.2326C41.8519 54.0031 42.4568 54.6392 43.2089 54.6392Z" fill="black"/>
<path d="M44.6212 43.3588V39.5185C44.6212 38.7545 44.017 38.1196 43.2637 38.1196H38.1217C37.3766 38.1196 36.7566 38.7545 36.7566 39.5185V43.3588C36.7566 44.1447 37.376 44.7648 38.1217 44.7648H43.2637C44.017 44.7648 44.6212 44.1447 44.6212 43.3588Z" fill="black"/>
<path d="M32.9348 54.6392H38.0629C38.815 54.6392 39.4344 54.0031 39.4344 53.2326V49.4C39.4344 48.6135 38.815 47.9934 38.0629 47.9934H32.9348C32.1682 47.9934 31.5627 48.6135 31.5627 49.4V53.2326C31.5627 54.0031 32.1682 54.6392 32.9348 54.6392Z" fill="#EC3C05"/>
<path d="M38.0652 34.798C38.8179 34.798 39.4367 34.178 39.4367 33.3997V29.56C39.4367 28.7877 38.8179 28.1611 38.0652 28.1611H32.9377C32.1699 28.1611 31.5651 28.7877 31.5651 29.56V33.3997C31.5651 34.178 32.1699 34.798 32.9377 34.798H38.0652Z" fill="black"/>
<path d="M34.3471 43.3588V39.5185C34.3471 38.7545 33.7277 38.1196 32.975 38.1196H27.833C27.0873 38.1196 26.4824 38.7545 26.4824 39.5185V43.3588C26.4824 44.1447 27.0878 44.7648 27.833 44.7648H32.975C33.7277 44.7648 34.3471 44.1447 34.3471 43.3588Z" fill="#EC3C05"/>
<path d="M22.7183 54.6392H27.8603C28.6125 54.6392 29.2324 54.0031 29.2324 53.2326V49.4C29.2324 48.6135 28.6125 47.9934 27.8603 47.9934H22.7183C21.9656 47.9934 21.3602 48.6135 21.3602 49.4V53.2326C21.3608 54.0031 21.9656 54.6392 22.7183 54.6392Z" fill="black"/>
<path d="M27.7905 34.798C28.5426 34.798 29.1481 34.178 29.1481 33.3997V29.56C29.1481 28.7877 28.5426 28.1611 27.7905 28.1611H22.6485C21.8952 28.1611 21.2904 28.7877 21.2904 29.56V33.3997C21.2904 34.178 21.8952 34.798 22.6485 34.798H27.7905Z" fill="#EC3C05"/>
<path d="M16.1909 39.5196V43.3605C16.1909 44.1382 16.8109 44.7588 17.5636 44.7588H22.705C23.4507 44.7588 24.0556 44.1382 24.0556 43.3605V39.5196C24.0556 38.7479 23.4507 38.1143 22.705 38.1143H17.5636C16.8109 38.1143 16.1909 38.7485 16.1909 39.5196Z" fill="black"/>
<path d="M25.2401 15.597C25.2401 14.5999 26.0586 12.8836 35.229 12.8541C44.3778 12.824 45.1969 14.5999 45.1969 15.597V15.8849H58.6395V15.5215C58.6395 13.7296 55.489 5 35.229 5C14.948 5 11.7975 13.7296 11.7975 15.5215V15.8849H25.2401V15.597Z" fill="black"/>
</g>
<defs>
<clipPath id="clip0_501209_260">
<rect width="49" height="59" fill="white" transform="translate(11 5)"/>
</clipPath>
</defs>
</svg>
