<svg width="70" height="70" viewBox="0 0 70 70" fill="none" xmlns="http://www.w3.org/2000/svg">
<g clip-path="url(#clip0_501209_296)">
<path d="M40.8905 10.2861L36.8657 6.83647C36.4228 6.45457 35.7639 6.45457 35.321 6.83647L31.1645 10.399C30.7861 10.7222 30.6504 11.246 30.8237 11.7123C30.9953 12.1785 31.4393 12.4875 31.9369 12.4875H33.1242V14.8626C33.1242 15.5187 33.6554 16.05 34.3115 16.05H37.874C38.5301 16.05 39.0619 15.5187 39.0619 14.8626V12.4875H40.2486C40.2566 12.4892 40.2663 12.4892 40.272 12.4875C40.9286 12.4875 41.4599 11.9562 41.4599 11.3001C41.4605 10.8704 41.2313 10.4947 40.8905 10.2861Z" fill="#EC3C05"/>
<path d="M31.3185 59.8141L35.3438 63.2632C35.7867 63.6462 36.4462 63.6462 36.8885 63.2632L41.045 59.7007C41.4229 59.3787 41.558 58.8548 41.3858 58.388C41.2143 57.9217 40.7702 57.6128 40.2726 57.6128H39.0853V55.2376C39.0853 54.5815 38.5541 54.0503 37.898 54.0503H34.3355C33.6794 54.0503 33.1482 54.5815 33.1482 55.2376V57.6128H31.9603C31.9518 57.6111 31.9426 57.6111 31.9369 57.6128C31.2803 57.6128 30.7496 58.144 30.7496 58.8001C30.7496 59.2293 30.9776 59.6061 31.3185 59.8141Z" fill="#EC3C05"/>
<path d="M60.2636 40.4188L63.7127 36.3934C64.0957 35.9511 64.0957 35.2916 63.7127 34.8487L60.1502 30.6923C59.8281 30.3144 59.3043 30.1787 58.8375 30.3514C58.3712 30.523 58.0623 30.9676 58.0623 31.4646V32.6519H55.6871C55.031 32.6519 54.4998 33.1832 54.4998 33.8392V37.4017C54.4998 38.0578 55.031 38.5891 55.6871 38.5891H58.0623V39.7764C58.0605 39.7855 58.0605 39.794 58.0623 39.7997C58.0623 40.4564 58.5935 40.9876 59.2496 40.9876C59.6793 40.9882 60.0555 40.7602 60.2636 40.4188Z" fill="#EC3C05"/>
<path d="M10.7358 30.8455L7.28673 34.8708C6.90426 35.3137 6.90426 35.9726 7.28673 36.4155L10.8492 40.5714C11.1719 40.9499 11.6957 41.0844 12.1619 40.9122C12.6282 40.7407 12.9371 40.2966 12.9371 39.799V38.6123H15.3123C15.9684 38.6123 16.4996 38.0805 16.4996 37.4244V33.8619C16.4996 33.2058 15.9684 32.6746 15.3123 32.6746H12.9371V31.4873C12.9389 31.4787 12.9389 31.4696 12.9371 31.4639C12.9371 30.8079 12.4059 30.2766 11.7498 30.2766C11.3206 30.276 10.9444 30.5046 10.7358 30.8455Z" fill="#EC3C05"/>
<path d="M46.151 51.3882L43.8374 42.1365L46.1675 29.3258C46.2855 28.6811 45.858 28.0627 45.2111 27.9458C44.5681 27.8216 43.9485 28.2553 43.8317 28.9017L41.6332 40.988H34.3121C33.656 40.988 33.1248 41.5192 33.1248 42.1753C33.1248 42.8314 33.656 43.3626 34.3121 43.3626H35.1665L33.1601 51.3876C33 52.0226 33.3876 52.6679 34.0248 52.8269C34.1206 52.8508 34.2181 52.8622 34.3133 52.8622C34.8462 52.8622 35.329 52.5026 35.4635 51.9622L37.613 43.362H41.6976L43.8471 51.9622C43.9816 52.5026 44.4661 52.8622 44.9985 52.8622C45.0931 52.8622 45.1906 52.8503 45.2875 52.8269C45.9236 52.6684 46.3112 52.0232 46.151 51.3882Z" fill="black"/>
<path d="M40.6419 39.8001L41.5049 35.0503H18.8748V52.8628H22.4373V39.8001H34.3121H40.6419Z" fill="black"/>
<path d="M46.3334 35.0503L45.4688 39.8001H48.5621V52.8628H52.1246V35.0503H46.3334Z" fill="black"/>
<path d="M34.3121 29.1128V18.4253H21.2494V29.1128H25.9992V30.3001C25.9992 31.3803 25.4566 31.4874 23.624 31.4874C21.1838 31.4874 21.2488 32.7813 21.2488 33.8626H27.2492H28.3117H33.1242H34.3115C34.3115 32.783 34.3115 31.4874 31.9363 31.4874C30.1038 31.4874 29.5611 31.3803 29.5611 30.3001V29.1128H34.3121ZM23.6246 26.7382V20.8005H31.9375V26.7382H23.6246Z" fill="black"/>
</g>
<defs>
<clipPath id="clip0_501209_296">
<rect width="57" height="57" fill="white" transform="translate(7 6.5498)"/>
</clipPath>
</defs>
</svg>
